# xmcd
# 
# Track frame offsets:
#     150
#     13196
#     24937
#     39930
#     52549
#     64554
#     77715
#     94282
#     106090
#     121356
#     131090
# 
# Disc length: 1979
# 
# Revision: 0
# Processed by: cddbd v1.5.2PL0 Copyright (c) Steve Scherf et al.
# Submitted via: BonkEnc v1.0.5
# 
DISCID=7c07b90b
DTITLE=Johnny Lyon - The Austin Sessions
DYEAR=0
DGENRE=Country
TTITLE0=Two Empty Glasses
TTITLE1=Big Blue Diamonds
TTITLE2=Cinderella
TTITLE3=Statue of a Fool
TTITLE4=Send Me the Pillow
TTITLE5=You are my Special Angel
TTITLE6=This Song is just for You
TTITLE7=What a Way to Live
TTITLE8=I'll Break Out Tonight
TTITLE9=Green Snakes
TTITLE10=You Gave me a Mountain
EXTD=
EXTT0=
EXTT1=
EXTT2=
EXTT3=
EXTT4=
EXTT5=
EXTT6=
EXTT7=
EXTT8=
EXTT9=
EXTT10=
PLAYORDER=
